<svg xmlns="http://www.w3.org/2000/svg" viewBox="0 0 9.8 10.67"><defs><style>.cls-1{fill:#e56b5b;}</style></defs><g id="Ebene_2" data-name="Ebene 2"><g id="Ebene_1-2" data-name="Ebene 1"><path class="cls-1" d="M5.16,3.25,5,3,3.54,0S0,7.7,0,7.7H.48L1.63,5h.42a2.23,2.23,0,0,1,.2-.33H1.78L3,1.93,3.8,3.47l.2.4.4.8H3.69L3.57,5h1L5.94,7.7H7.38Z"/><path class="cls-1" d="M9.34,4.84A3.54,3.54,0,0,0,8,3.43a3.67,3.67,0,0,0-2-.54A4.05,4.05,0,0,0,5.23,3l.13.26.17,0A2.33,2.33,0,0,1,7,3.71,3.09,3.09,0,0,1,8,5.07a5.55,5.55,0,0,1,.33,2A4.83,4.83,0,0,1,8,8.84,2.57,2.57,0,0,1,7.19,10,2,2,0,0,1,6,10.37a2.12,2.12,0,0,1-1.4-.52,3.45,3.45,0,0,1-1-1.43,5.89,5.89,0,0,1-.35-2.08A5.43,5.43,0,0,1,3.41,5l.12-.33a2.69,2.69,0,0,1,.31-.61l0,0-.22-.44A3.82,3.82,0,0,0,2.41,4.66h0a2.23,2.23,0,0,0-.2.33,3.69,3.69,0,0,0-.43,1.78,4,4,0,0,0,.48,2A3.52,3.52,0,0,0,3.6,10.15a3.76,3.76,0,0,0,2,.52,4.3,4.3,0,0,0,2.09-.53A4.1,4.1,0,0,0,9.22,8.7a3.62,3.62,0,0,0,.58-2A4,4,0,0,0,9.34,4.84Z"/></g></g></svg>