<svg width="211" height="204" viewBox="0 0 211 204" fill="none" xmlns="http://www.w3.org/2000/svg">
<path d="M169.77 146.234C169.77 146.234 169.77 147.599 168.6 147.599C167.43 147.599 160.994 147.599 154.363 147.599C147.732 147.599 143.051 147.599 140.126 147.599C137.2 147.599 131.545 147.599 126.279 147.599C121.013 147.599 116.918 147.599 113.992 147.599C111.067 147.599 113.992 147.598 113.992 146.234C113.992 144.869 113.992 144.869 113.992 144.869C117.384 145.123 120.788 144.59 123.939 143.31C124.894 142.913 125.705 142.232 126.263 141.361C126.821 140.49 127.099 139.47 127.059 138.436C126.495 134.179 125.104 130.073 122.964 126.35L105.217 90.479H48.6593L37.3475 115.627C35.5592 119.621 34.5658 123.925 34.4223 128.298C34.2965 130.699 34.7647 133.093 35.7852 135.269C36.8057 137.445 38.3468 139.337 40.2728 140.775C45.1889 143.776 50.9045 145.204 56.6548 144.869C56.6548 144.869 57.8255 144.869 57.8255 146.234C57.8255 147.598 57.825 147.599 56.6548 147.599C55.4847 147.599 49.6344 147.599 44.3687 147.599C39.1031 147.599 33.2521 147.599 28.9616 147.599C24.671 147.599 19.7952 147.599 14.1395 147.599C8.48374 147.599 5.16821 147.599 1.85278 147.599C-1.46264 147.599 0.682681 147.598 0.682681 146.234C0.682681 144.869 0.682633 144.869 1.85278 144.869C5.65545 145.026 9.4296 144.15 12.7741 142.335C16.3521 139.898 19.3488 136.704 21.5505 132.978C25.3012 126.711 28.6244 120.198 31.497 113.483L81.8132 0.219528C82.1523 0.0747405 82.517 0 82.8857 0C83.2544 0 83.6198 0.0747405 83.9588 0.219528C85.129 0.219528 85.7136 0.219528 85.9086 0.219528L143.246 115.822C146.805 124.036 151.393 131.766 156.898 138.826C158.289 140.642 160.053 142.138 162.071 143.215C164.09 144.291 166.316 144.921 168.6 145.064C168.6 145.064 169.77 145.259 169.77 146.234ZM51.1941 84.4357H102.486L75.5723 31.0207L51.1941 84.4357Z" fill="#E66C5C"/>
<path d="M89.6139 193.605C78.5117 186.968 69.466 177.387 63.4806 165.923C57.7095 154.304 54.8326 141.463 55.0947 128.494C54.7079 113.854 58.938 99.4637 67.1861 87.3602C75.1174 76.1176 85.883 67.172 98.3903 61.4321C110.615 55.778 123.925 52.851 137.395 52.8544C150.685 52.4052 163.831 55.7164 175.32 62.4072C186.81 69.098 196.175 78.8964 202.338 90.674C208.314 101.821 211.399 114.288 211.31 126.934C211.443 140.73 207.582 154.27 200.193 165.923C192.678 177.755 182.276 187.482 169.965 194.19C157.461 200.979 143.432 204.468 129.204 204.328C115.26 204.559 101.534 200.841 89.6139 193.605ZM161.578 190.486C169.415 184.887 175.501 177.181 179.13 168.263C183.647 157.127 185.837 145.185 185.567 133.172C185.859 119.819 183.403 106.548 178.351 94.1828C174.46 83.6411 167.707 74.3925 158.848 67.4754C149.831 60.9951 138.941 57.6407 127.839 57.9232C121.091 57.6079 114.364 58.9122 108.223 61.7272C102.082 64.5422 96.7044 68.7858 92.5398 74.1035C83.5889 87.3572 79.2065 103.167 80.0579 119.136C79.9016 132.939 82.4183 146.642 87.4689 159.49C91.4743 170.354 98.1869 180.016 106.971 187.562C115.334 194.217 125.732 197.795 136.42 197.699C145.349 197.934 154.132 195.416 161.578 190.486Z" fill="#E66C5C"/>
</svg>
